<?xml version="1.0" encoding="UTF-8"?>
<svg xmlns="http://www.w3.org/2000/svg" xmlns:xlink="http://www.w3.org/1999/xlink" viewBox="0 0 192 192" width="192px" height="192px">
<g id="surface42652186">
<path style=" stroke:none;fill-rule:nonzero;fill:rgb(24.705882%,31.764707%,70.980394%);fill-opacity:1;" d="M 96 8 C 69.410156 8 48 29.410156 48 56 L 48 64 C 39.253906 64 32 71.253906 32 80 L 32 160 C 32 168.746094 39.253906 176 48 176 L 144 176 C 152.746094 176 160 168.746094 160 160 L 160 80 C 160 71.253906 152.746094 64 144 64 L 144 56 C 144 29.410156 122.589844 8 96 8 Z M 96 24 C 114.210938 24 128 37.789062 128 56 L 128 64 L 64 64 L 64 56 C 64 37.789062 77.789062 24 96 24 Z M 48 80 L 144 80 L 144 160 L 48 160 Z M 96 104 C 87.199219 104 80 111.199219 80 120 C 80 128.800781 87.199219 136 96 136 C 104.800781 136 112 128.800781 112 120 C 112 111.199219 104.800781 104 96 104 Z M 96 104 "/>
</g>
</svg>
